<svg width="200" height="200" viewBox="0 0 200 200" fill="none" xmlns="http://www.w3.org/2000/svg">
  <!-- 背景圆形 -->
  <circle cx="100" cy="100" r="90" fill="#1976D2" />
  <circle cx="100" cy="100" r="75" fill="#2196F3" />
  
  <!-- 向量数据符号 -->
  <g stroke="#FFFFFF" stroke-width="5" stroke-linecap="round" stroke-linejoin="round">
    <!-- 中心点 -->
    <circle cx="100" cy="100" r="8" fill="#FFFFFF" />
    
    <!-- 向量线 -->
    <line x1="100" y1="100" x2="150" y2="70" />
    <line x1="100" y1="100" x2="130" y2="130" />
    <line x1="100" y1="100" x2="50" y2="130" />
    <line x1="100" y1="100" x2="70" y2="60" />
    <line x1="100" y1="100" x2="40" y2="85" />
    <line x1="100" y1="100" x2="160" y2="110" />
    
    <!-- 向量端点 -->
    <circle cx="150" cy="70" r="5" fill="#FFFFFF" />
    <circle cx="130" cy="130" r="5" fill="#FFFFFF" />
    <circle cx="50" cy="130" r="5" fill="#FFFFFF" />
    <circle cx="70" cy="60" r="5" fill="#FFFFFF" />
    <circle cx="40" cy="85" r="5" fill="#FFFFFF" />
    <circle cx="160" cy="110" r="5" fill="#FFFFFF" />
  </g>
  
  <!-- 数据库符号 -->
  <g transform="translate(80, 140) scale(0.6)">
    <ellipse cx="33" cy="15" rx="30" ry="10" fill="#FFFFFF" />
    <path d="M63,15 L63,40 C63,45.5 48.5,50 33,50 C17.5,50 3,45.5 3,40 L3,15" stroke="#FFFFFF" stroke-width="3" fill="none" />
    <path d="M63,27.5 C63,33 48.5,37.5 33,37.5 C17.5,37.5 3,33 3,27.5" stroke="#FFFFFF" stroke-width="2" fill="none" />
  </g>
</svg> 